<svg height="512pt" viewBox="0 0 512 512" width="512pt" xmlns="http://www.w3.org/2000/svg"><path d="m437.019531 74.980469c-48.351562-48.351563-112.640625-74.980469-181.019531-74.980469s-132.667969 26.628906-181.019531 74.980469c-48.351563 48.351562-74.980469 112.640625-74.980469 181.019531s26.628906 132.667969 74.980469 181.019531c48.351562 48.351563 112.640625 74.980469 181.019531 74.980469s132.667969-26.628906 181.019531-74.980469c48.351563-48.351562 74.980469-112.640625 74.980469-181.019531s-26.628906-132.667969-74.980469-181.019531zm-38.839843 231.417969c0 7.292968-5.933594 13.222656-13.226563 13.222656-7.289063 0-13.222656-5.929688-13.222656-13.222656 0-7.292969 5.933593-13.222657 13.222656-13.222657 7.292969 0 13.226563 5.929688 13.226563 13.222657zm-284.359376-100.796876c0-7.292968 5.933594-13.222656 13.226563-13.222656 7.289063 0 13.222656 5.929688 13.222656 13.222656 0 7.292969-5.933593 13.222657-13.222656 13.222657-7.292969 0-13.226563-5.933594-13.226563-13.222657zm315.164063 195.664063v-30.457031c0-8.285156-6.71875-15-15-15-8.285156 0-15 6.714844-15 15v60.074218c-5.832031 4.777344-11.90625 9.261719-18.199219 13.445313v-53.519531c0-8.28125-6.714844-15-15-15-8.28125 0-15 6.71875-15 15v70.324218c-10.265625 4.761719-20.941406 8.78125-31.96875 11.976563v-259.652344h38.6875c5.171875 18.082031 21.835938 31.359375 41.554688 31.359375 23.835937 0 43.222656-19.386718 43.222656-43.222656 0-23.832031-19.386719-43.222656-43.222656-43.222656-17.355469 0-32.347656 10.289062-39.21875 25.085937h-56.023438c-8.285156 0-15 6.714844-15 15v281.152344c-10.71875 1.566406-21.671875 2.390625-32.816406 2.390625-124.617188 0-226-101.382812-226-226 0-12.039062.957031-23.863281 2.777344-35.398438h53.730468c6.113282 16.460938 21.976563 28.222657 40.535157 28.222657 23.835937 0 43.222656-19.390625 43.222656-43.222657 0-23.832031-19.386719-43.222656-43.222656-43.222656-18.558594 0-34.421875 11.761719-40.535157 28.222656h-46.847656c8.980469-29.640624 23.894532-56.722656 43.355469-79.867187v19.203125c0 8.28125 6.714844 15 15 15s15-6.71875 15-15v-48.824219c5.832031-4.773437 11.90625-9.257812 18.195313-13.441406v42.261719c0 8.285156 6.71875 15 15 15 8.285156 0 15-6.714844 15-15v-59.066406c9.1875-4.261719 18.699218-7.929688 28.496093-10.941407v263.167969h-36.234375c-6.109375-16.460938-21.972656-28.222656-40.535156-28.222656-23.832031 0-43.222656 19.390625-43.222656 43.222656 0 23.835938 19.390625 43.222656 43.222656 43.222656 18.5625 0 34.425781-11.761718 40.535156-28.222656h51.234375c8.285157 0 15-6.714844 15-15v-285.164062c11.820313-1.917969 23.941407-2.929688 36.292969-2.929688 124.617188 0 226 101.382812 226 226 0 12.039062-.957031 23.863281-2.777344 35.398438h-53.730468c-6.113282-16.460938-21.976563-28.222657-40.535157-28.222657-23.835937 0-43.222656 19.390625-43.222656 43.222657 0 23.832031 19.386719 43.222656 43.222656 43.222656 18.558594 0 34.421875-11.761719 40.535157-28.222656h46.847656c-8.980469 29.640624-23.894532 56.726562-43.355469 79.867187zm-29.925781-212.894531c7.292968 0 13.226562 5.933594 13.226562 13.222656 0 7.292969-5.933594 13.222656-13.226562 13.222656-7.289063 0-13.222656-5.929687-13.222656-13.222656 0-7.289062 5.933593-13.222656 13.222656-13.222656zm-272.894532 129.722656c0 7.292969-5.933593 13.222656-13.222656 13.222656-7.292968 0-13.226562-5.929687-13.226562-13.222656 0-7.289062 5.933594-13.222656 13.226562-13.222656 7.289063 0 13.222656 5.933594 13.222656 13.222656zm0 0"/><path d="m333.390625 52.003906c-23.835937 0-43.226563 19.386719-43.226563 43.222656 0 5.074219.886719 9.941407 2.5 14.46875l-48.019531 40.105469c-3.410156 2.847657-5.382812 7.066407-5.382812 11.511719v190.359375l-20.585938 11.121094c-7.617187-6.699219-17.589843-10.773438-28.507812-10.773438-23.832031 0-43.222657 19.386719-43.222657 43.222657 0 23.832031 19.390626 43.222656 43.222657 43.222656 23.835937 0 43.222656-19.390625 43.222656-43.222656 0-2.0625-.152344-4.085938-.433594-6.066407l28.433594-15.363281c4.851563-2.617188 7.871094-7.6875 7.871094-13.195312v-192.289063l42.648437-35.617187c6.332032 3.640624 13.664063 5.738281 21.480469 5.738281 23.832031 0 43.222656-19.390625 43.222656-43.222657-.003906-23.835937-19.390625-43.222656-43.222656-43.222656zm-156.445313 343.238282c0-7.292969 5.933594-13.222657 13.222657-13.222657 7.292969 0 13.222656 5.929688 13.222656 13.222657 0 7.289062-5.929687 13.222656-13.222656 13.222656-7.289063 0-13.222657-5.933594-13.222657-13.222656zm143.21875-300.015626c0-7.292968 5.933594-13.222656 13.226563-13.222656 7.289063 0 13.222656 5.929688 13.222656 13.222656 0 7.289063-5.933593 13.222657-13.222656 13.222657-7.292969 0-13.226563-5.933594-13.226563-13.222657zm0 0"/></svg>