<svg id="Capa_1" enable-background="new 0 0 512 512" height="512" viewBox="0 0 512 512" width="512" xmlns="http://www.w3.org/2000/svg"><g><path d="m452.409 44.591h-392.818c-8.284 0-15 6.716-15 15v392.818c0 8.284 6.716 15 15 15h392.818c8.284 0 15-6.716 15-15v-392.818c0-8.284-6.716-15-15-15z" fill="#29cccc"/><path d="m452.409 44.591h-196.409v422.818h196.409c8.284 0 15-6.716 15-15v-392.818c0-8.284-6.716-15-15-15z" fill="#249bb3"/><path d="m340.669 156.331h-169.338c-8.284 0-15 6.716-15 15v169.338c0 8.284 6.716 15 15 15h169.338c8.284 0 15-6.716 15-15v-169.338c0-8.284-6.716-15-15-15z" fill="#195d80"/><path d="m149.664 0c-8.284 0-15 6.716-15 15v89.182c0 8.284 6.716 15 15 15s15-6.716 15-15v-89.182c0-8.284-6.716-15-15-15z" fill="#fed943"/><path d="m220.555 0c-8.284 0-15 6.716-15 15v89.182c0 8.284 6.716 15 15 15s15-6.716 15-15v-89.182c0-8.284-6.716-15-15-15z" fill="#fed943"/><path d="m291.445 0c-8.284 0-15 6.716-15 15v89.182c0 8.284 6.716 15 15 15s15-6.716 15-15v-89.182c0-8.284-6.716-15-15-15z" fill="#fcbe2c"/><path d="m362.336 0c-8.284 0-15 6.716-15 15v89.182c0 8.284 6.716 15 15 15s15-6.716 15-15v-89.182c0-8.284-6.716-15-15-15z" fill="#fcbe2c"/><path d="m149.664 392.818c-8.284 0-15 6.716-15 15v89.182c0 8.284 6.716 15 15 15s15-6.716 15-15v-89.182c0-8.284-6.716-15-15-15z" fill="#fed943"/><path d="m220.555 392.818c-8.284 0-15 6.716-15 15v89.182c0 8.284 6.716 15 15 15s15-6.716 15-15v-89.182c0-8.284-6.716-15-15-15z" fill="#fed943"/><g fill="#fcbe2c"><path d="m291.445 392.818c-8.284 0-15 6.716-15 15v89.182c0 8.284 6.716 15 15 15s15-6.716 15-15v-89.182c0-8.284-6.716-15-15-15z"/><path d="m362.336 392.818c-8.284 0-15 6.716-15 15v89.182c0 8.284 6.716 15 15 15s15-6.716 15-15v-89.182c0-8.284-6.716-15-15-15z"/><path d="m407.817 164.664h89.183c8.284 0 15-6.716 15-15s-6.716-15-15-15h-89.183c-8.284 0-15 6.716-15 15s6.716 15 15 15z"/><path d="m497 205.555h-89.183c-8.284 0-15 6.716-15 15s6.716 15 15 15h89.183c8.284 0 15-6.716 15-15s-6.716-15-15-15z"/><path d="m497 276.445h-89.183c-8.284 0-15 6.716-15 15s6.716 15 15 15h89.183c8.284 0 15-6.716 15-15s-6.716-15-15-15z"/><path d="m497 347.336h-89.183c-8.284 0-15 6.716-15 15s6.716 15 15 15h89.183c8.284 0 15-6.716 15-15s-6.716-15-15-15z"/></g><path d="m104.182 134.664h-89.182c-8.284 0-15 6.716-15 15s6.716 15 15 15h89.182c8.284 0 15-6.716 15-15s-6.716-15-15-15z" fill="#fed943"/><path d="m104.182 205.555h-89.182c-8.284 0-15 6.716-15 15s6.716 15 15 15h89.182c8.284 0 15-6.716 15-15s-6.716-15-15-15z" fill="#fed943"/><path d="m104.182 276.445h-89.182c-8.284 0-15 6.716-15 15s6.716 15 15 15h89.182c8.284 0 15-6.716 15-15s-6.716-15-15-15z" fill="#fed943"/><path d="m104.182 347.336h-89.182c-8.284 0-15 6.716-15 15s6.716 15 15 15h89.182c8.284 0 15-6.716 15-15s-6.716-15-15-15z" fill="#fed943"/><path d="m340.669 156.331h-84.669v199.338h84.669c8.284 0 15-6.716 15-15v-169.338c0-8.284-6.716-15-15-15z" fill="#143d66"/></g></svg>